<mxfile host="app.diagrams.net" modified="2020-03-31T19:59:07.328Z" agent="Mozilla/5.0 (Macintosh; Intel Mac OS X 10_14_6) AppleWebKit/537.36 (KHTML, like Gecko) Chrome/80.0.3987.149 Safari/537.36" etag="_321JJkDUyUcS6tcii1w" version="12.8.6" type="github">
  <diagram name="Page-1" id="13e1069c-82ec-6db2-03f1-153e76fe0fe0">
    <mxGraphModel dx="1103" dy="1080" grid="1" gridSize="10" guides="1" tooltips="1" connect="1" arrows="1" fold="1" page="1" pageScale="1" pageWidth="1100" pageHeight="850" background="#ffffff" math="0" shadow="0">
      <root>
        <mxCell id="0" />
        <mxCell id="1" parent="0" />
        <mxCell id="7baba1c4bc27f4b0-2" value="&lt;b&gt;AMAZON Connect&lt;/b&gt;" style="shape=umlLifeline;perimeter=lifelinePerimeter;whiteSpace=wrap;html=1;container=1;collapsible=0;recursiveResize=0;outlineConnect=0;rounded=1;shadow=0;comic=0;labelBackgroundColor=none;strokeWidth=1;fontFamily=Verdana;fontSize=12;align=center;" parent="1" vertex="1">
          <mxGeometry x="240" y="80" width="100" height="580" as="geometry" />
        </mxCell>
        <mxCell id="7baba1c4bc27f4b0-10" value="" style="html=1;points=[];perimeter=orthogonalPerimeter;rounded=0;shadow=0;comic=0;labelBackgroundColor=none;strokeWidth=1;fontFamily=Verdana;fontSize=12;align=center;" parent="7baba1c4bc27f4b0-2" vertex="1">
          <mxGeometry x="45" y="100" width="10" height="50" as="geometry" />
        </mxCell>
        <mxCell id="cPVbEXueCXmzOd6sYvt9-12" value="" style="html=1;points=[];perimeter=orthogonalPerimeter;rounded=0;shadow=0;comic=0;labelBackgroundColor=none;strokeWidth=1;fontFamily=Verdana;fontSize=12;align=center;" vertex="1" parent="7baba1c4bc27f4b0-2">
          <mxGeometry x="45" y="230" width="10" height="50" as="geometry" />
        </mxCell>
        <mxCell id="7baba1c4bc27f4b0-3" value="&lt;b&gt;SMS Service&lt;br&gt;&lt;/b&gt;AMAZON Pinpoint" style="shape=umlLifeline;perimeter=lifelinePerimeter;whiteSpace=wrap;html=1;container=1;collapsible=0;recursiveResize=0;outlineConnect=0;rounded=1;shadow=0;comic=0;labelBackgroundColor=none;strokeWidth=1;fontFamily=Verdana;fontSize=12;align=center;" parent="1" vertex="1">
          <mxGeometry x="400" y="80" width="120" height="580" as="geometry" />
        </mxCell>
        <mxCell id="7baba1c4bc27f4b0-13" value="" style="html=1;points=[];perimeter=orthogonalPerimeter;rounded=0;shadow=0;comic=0;labelBackgroundColor=none;strokeWidth=1;fontFamily=Verdana;fontSize=12;align=center;" parent="7baba1c4bc27f4b0-3" vertex="1">
          <mxGeometry x="55" y="150" width="10" height="50" as="geometry" />
        </mxCell>
        <mxCell id="7baba1c4bc27f4b0-4" value="&lt;b&gt;PIN Service&lt;/b&gt;&lt;br&gt;AWS Lambda" style="shape=umlLifeline;perimeter=lifelinePerimeter;whiteSpace=wrap;html=1;container=1;collapsible=0;recursiveResize=0;outlineConnect=0;rounded=1;shadow=0;comic=0;labelBackgroundColor=none;strokeWidth=1;fontFamily=Verdana;fontSize=12;align=center;" parent="1" vertex="1">
          <mxGeometry x="560" y="80" width="100" height="580" as="geometry" />
        </mxCell>
        <mxCell id="7baba1c4bc27f4b0-16" value="" style="html=1;points=[];perimeter=orthogonalPerimeter;rounded=0;shadow=0;comic=0;labelBackgroundColor=none;strokeWidth=1;fontFamily=Verdana;fontSize=12;align=center;" parent="7baba1c4bc27f4b0-4" vertex="1">
          <mxGeometry x="45" y="120" width="10" height="40" as="geometry" />
        </mxCell>
        <mxCell id="7baba1c4bc27f4b0-8" value="&lt;b&gt;Teacher&lt;/b&gt;" style="shape=umlLifeline;perimeter=lifelinePerimeter;whiteSpace=wrap;html=1;container=1;collapsible=0;recursiveResize=0;outlineConnect=0;rounded=1;shadow=0;comic=0;labelBackgroundColor=none;strokeWidth=1;fontFamily=Verdana;fontSize=12;align=center;" parent="1" vertex="1">
          <mxGeometry x="100" y="80" width="100" height="580" as="geometry" />
        </mxCell>
        <mxCell id="7baba1c4bc27f4b0-9" value="" style="html=1;points=[];perimeter=orthogonalPerimeter;rounded=0;shadow=0;comic=0;labelBackgroundColor=none;strokeWidth=1;fontFamily=Verdana;fontSize=12;align=center;" parent="7baba1c4bc27f4b0-8" vertex="1">
          <mxGeometry x="45" y="100" width="10" height="440" as="geometry" />
        </mxCell>
        <mxCell id="7baba1c4bc27f4b0-22" value="" style="html=1;points=[];perimeter=orthogonalPerimeter;rounded=0;shadow=0;comic=0;labelBackgroundColor=none;strokeWidth=1;fontFamily=Verdana;fontSize=12;align=center;" parent="1" vertex="1">
          <mxGeometry x="585" y="440" width="10" height="140" as="geometry" />
        </mxCell>
        <mxCell id="7baba1c4bc27f4b0-23" value="dispatch" style="html=1;verticalAlign=bottom;endArrow=block;entryX=0;entryY=0;labelBackgroundColor=none;fontFamily=Verdana;fontSize=12;" parent="1" source="7baba1c4bc27f4b0-9" target="7baba1c4bc27f4b0-22" edge="1">
          <mxGeometry relative="1" as="geometry">
            <mxPoint x="510" y="420" as="sourcePoint" />
          </mxGeometry>
        </mxCell>
        <mxCell id="7baba1c4bc27f4b0-11" value="" style="html=1;verticalAlign=bottom;endArrow=block;entryX=0;entryY=0;labelBackgroundColor=none;fontFamily=Verdana;fontSize=12;edgeStyle=elbowEdgeStyle;elbow=vertical;" parent="1" source="7baba1c4bc27f4b0-9" target="7baba1c4bc27f4b0-10" edge="1">
          <mxGeometry x="0.1538" y="30" relative="1" as="geometry">
            <mxPoint x="220" y="190" as="sourcePoint" />
            <mxPoint as="offset" />
          </mxGeometry>
        </mxCell>
        <mxCell id="cPVbEXueCXmzOd6sYvt9-4" value="Call Center" style="text;html=1;align=center;verticalAlign=middle;resizable=0;points=[];labelBackgroundColor=#ffffff;" vertex="1" connectable="0" parent="7baba1c4bc27f4b0-11">
          <mxGeometry x="0.3077" y="1" relative="1" as="geometry">
            <mxPoint x="-20" y="-9" as="offset" />
          </mxGeometry>
        </mxCell>
        <mxCell id="7baba1c4bc27f4b0-14" value="Generate/Retrieve&amp;nbsp;PIN" style="html=1;verticalAlign=bottom;endArrow=block;labelBackgroundColor=none;fontFamily=Verdana;fontSize=12;edgeStyle=elbowEdgeStyle;elbow=vertical;" parent="1" source="7baba1c4bc27f4b0-10" target="7baba1c4bc27f4b0-4" edge="1">
          <mxGeometry relative="1" as="geometry">
            <mxPoint x="370" y="200" as="sourcePoint" />
          </mxGeometry>
        </mxCell>
        <mxCell id="cPVbEXueCXmzOd6sYvt9-2" value="" style="endArrow=classic;html=1;" edge="1" parent="1" source="7baba1c4bc27f4b0-2" target="7baba1c4bc27f4b0-8">
          <mxGeometry width="50" height="50" relative="1" as="geometry">
            <mxPoint x="490" y="510" as="sourcePoint" />
            <mxPoint x="540" y="460" as="targetPoint" />
            <Array as="points">
              <mxPoint x="240" y="230" />
            </Array>
          </mxGeometry>
        </mxCell>
        <mxCell id="cPVbEXueCXmzOd6sYvt9-3" value="Welcome Message" style="text;html=1;align=center;verticalAlign=middle;resizable=0;points=[];labelBackgroundColor=#ffffff;" vertex="1" connectable="0" parent="cPVbEXueCXmzOd6sYvt9-2">
          <mxGeometry x="-0.0786" y="-2" relative="1" as="geometry">
            <mxPoint x="-5.5" y="-8" as="offset" />
          </mxGeometry>
        </mxCell>
        <mxCell id="cPVbEXueCXmzOd6sYvt9-5" value="" style="endArrow=classic;html=1;" edge="1" parent="1" source="7baba1c4bc27f4b0-16" target="7baba1c4bc27f4b0-3">
          <mxGeometry width="50" height="50" relative="1" as="geometry">
            <mxPoint x="500" y="440" as="sourcePoint" />
            <mxPoint x="550" y="390" as="targetPoint" />
            <Array as="points">
              <mxPoint x="540" y="240" />
            </Array>
          </mxGeometry>
        </mxCell>
        <mxCell id="cPVbEXueCXmzOd6sYvt9-6" value="PIN" style="text;html=1;align=center;verticalAlign=middle;resizable=0;points=[];autosize=1;" vertex="1" parent="1">
          <mxGeometry x="510" y="220" width="40" height="20" as="geometry" />
        </mxCell>
        <mxCell id="cPVbEXueCXmzOd6sYvt9-10" value="" style="endArrow=classic;html=1;" edge="1" parent="1" source="7baba1c4bc27f4b0-13" target="7baba1c4bc27f4b0-9">
          <mxGeometry width="50" height="50" relative="1" as="geometry">
            <mxPoint x="500" y="450" as="sourcePoint" />
            <mxPoint x="550" y="400" as="targetPoint" />
            <Array as="points">
              <mxPoint x="410" y="280" />
            </Array>
          </mxGeometry>
        </mxCell>
        <mxCell id="cPVbEXueCXmzOd6sYvt9-11" value="PIN" style="text;html=1;align=center;verticalAlign=middle;resizable=0;points=[];labelBackgroundColor=#ffffff;" vertex="1" connectable="0" parent="cPVbEXueCXmzOd6sYvt9-10">
          <mxGeometry x="-0.6503" y="-2" relative="1" as="geometry">
            <mxPoint x="-41" y="-11" as="offset" />
          </mxGeometry>
        </mxCell>
        <mxCell id="cPVbEXueCXmzOd6sYvt9-13" value="" style="endArrow=classic;html=1;" edge="1" parent="1">
          <mxGeometry width="50" height="50" relative="1" as="geometry">
            <mxPoint x="280" y="320" as="sourcePoint" />
            <mxPoint x="160" y="320" as="targetPoint" />
            <Array as="points">
              <mxPoint x="240.5" y="320" />
            </Array>
          </mxGeometry>
        </mxCell>
        <mxCell id="cPVbEXueCXmzOd6sYvt9-14" value="Enter PIN" style="text;html=1;align=center;verticalAlign=middle;resizable=0;points=[];labelBackgroundColor=#ffffff;" vertex="1" connectable="0" parent="cPVbEXueCXmzOd6sYvt9-13">
          <mxGeometry x="-0.0786" y="-2" relative="1" as="geometry">
            <mxPoint x="-5.5" y="-8" as="offset" />
          </mxGeometry>
        </mxCell>
      </root>
    </mxGraphModel>
  </diagram>
</mxfile>
